# xmcd
#
# Track frame offsets:
#	150
#	15386
#	28727
#	41379
#	56444
#	69105
#	82647
#	95658
#	108764
#	123312
#	137556
#	151012
#	164681
#	177837
#	192963
#	205109
#	217033
#	231264
#	244132
#	256667
#
# Disc length: 3622 seconds
#
# Revision: 1
# Processed by: cddbd v1.5.2PL0 Copyright (c) Steve Scherf et al.
# Submitted via: audiograbber 1.83.01
#
DISCID=f90e2414
DTITLE=Rodgers, Jimmie - The Singing Brakeman - The Essential Recordings - CD2
DYEAR=2012
DGENRE=Country
TTITLE0=My Time Ain't Long
TTITLE1=Miss The Mississippi And You
TTITLE2=Jimmie's Texas Blues
TTITLE3=For The Sake of Days Gone By
TTITLE4=Travellin' Blues
TTITLE5=Treasures Untold
TTITLE6=Tuck Away My Lonesome Blues
TTITLE7=In The Jailhouse Now
TTITLE8=Ninety Nine Years Blues
TTITLE9=Take Me Back Again
TTITLE10=Blue Yodel # 8 (Mule Skinner Blues)
TTITLE11=Sleep, Baby, Sleep
TTITLE12=Frankie And Johnny
TTITLE13=Looking for A New Mama
TTITLE14=Let Me Be Your Sidetrack
TTITLE15=Hobo Bill's Last Ride
TTITLE16=Whippin' That Old T.B.
TTITLE17=Everybody Does It in Hawaii
TTITLE18=My Good Gals' Gone Blues
TTITLE19=Jimmie Rodgers' Last Blue Yodel
EXTD=
EXTT0=
EXTT1=
EXTT2=
EXTT3=
EXTT4=
EXTT5=
EXTT6=
EXTT7=
EXTT8=
EXTT9=
EXTT10=
EXTT11=
EXTT12=
EXTT13=
EXTT14=
EXTT15=
EXTT16=
EXTT17=
EXTT18=
EXTT19=
PLAYORDER=
